<svg xmlns="http://www.w3.org/2000/svg" xmlns:xlink="http://www.w3.org/1999/xlink" viewBox="0 0 340.93 115.44"><defs><style>.cls-1{fill:none;}.cls-2{fill:#b39156;}.cls-3{clip-path:url(#clip-path);}.cls-4{clip-path:url(#clip-path-2);}.cls-5{fill:#dcbe7d;}.cls-6{clip-path:url(#clip-path-3);}.cls-7{clip-path:url(#clip-path-4);}.cls-8{fill:#dbbd7c;}.cls-9{fill:#dabc7b;}.cls-10{fill:#d9bb7a;}.cls-11{fill:#d8ba79;}.cls-12{fill:#d7b979;}.cls-13{fill:#d6b878;}.cls-14{fill:#d5b777;}.cls-15{fill:#d5b676;}.cls-16{fill:#d4b575;}.cls-17{clip-path:url(#clip-path-5);}.cls-18{clip-path:url(#clip-path-6);}.cls-19{fill:#d3b474;}.cls-20{fill:#d2b373;}.cls-21{fill:#d1b272;}.cls-22{fill:#d0b171;}.cls-23{fill:#cfb071;}.cls-24{fill:#ceaf70;}.cls-25{fill:#cdae6f;}.cls-26{fill:#ccad6e;}.cls-27{fill:#cbac6d;}.cls-28{fill:#caab6c;}.cls-29{fill:#c9aa6b;}.cls-30{clip-path:url(#clip-path-7);}.cls-31{clip-path:url(#clip-path-8);}.cls-32{fill:#c8a96a;}.cls-33{fill:#c8a86a;}.cls-34{fill:#c7a669;}.cls-35{fill:#c6a568;}.cls-36{fill:#c5a467;}.cls-37{fill:#c4a366;}.cls-38{fill:#c3a265;}.cls-39{fill:#c2a164;}.cls-40{fill:#c1a063;}.cls-41{fill:#c09f62;}.cls-42{clip-path:url(#clip-path-9);}.cls-43{clip-path:url(#clip-path-10);}.cls-44{fill:#bf9e62;}.cls-45{fill:#be9d61;}.cls-46{fill:#bd9c60;}.cls-47{fill:#bc9b5f;}.cls-48{fill:#bb9a5e;}.cls-49{fill:#ba995d;}.cls-50{fill:#ba985c;}.cls-51{fill:#b9975b;}.cls-52{fill:#b8965a;}.cls-53{fill:#b7955a;}.cls-54{clip-path:url(#clip-path-11);}.cls-55{clip-path:url(#clip-path-12);}.cls-56{fill:#b69459;}.cls-57{fill:#b59358;}.cls-58{fill:#b49257;}.cls-59{clip-path:url(#clip-path-13);}.cls-60{clip-path:url(#clip-path-14);}.cls-61{clip-path:url(#clip-path-15);}.cls-62{clip-path:url(#clip-path-16);}.cls-63{clip-path:url(#clip-path-17);}.cls-64{clip-path:url(#clip-path-18);}.cls-65{clip-path:url(#clip-path-19);}.cls-66{clip-path:url(#clip-path-20);}.cls-67{clip-path:url(#clip-path-21);}.cls-68{clip-path:url(#clip-path-22);}</style><clipPath id="clip-path" transform="translate(0 0)"><path class="cls-1" d="M103.86,36.22a12.68,12.68,0,0,0-4.61,3.35,14.77,14.77,0,0,0-2.86,5.08,19.89,19.89,0,0,0-1,6.38,20.29,20.29,0,0,0,.95,6.36,13.77,13.77,0,0,0,2.81,5,12.84,12.84,0,0,0,4.64,3.29,16.34,16.34,0,0,0,6.42,1.18c.68,0,1.35,0,2-.07s1.3-.11,2-.21a17.91,17.91,0,0,0,2.06-.45c.71-.2,1.49-.46,2.32-.78A23.5,23.5,0,0,0,116.66,59a26.31,26.31,0,0,1-3,.86,12.66,12.66,0,0,1-2.6.26q-7.63,0-7.64-9.11,0-4.64,1.91-7a6.57,6.57,0,0,1,5.39-2.34,12,12,0,0,1,1.38.07c.42,0,.85.11,1.28.19s.88.2,1.36.34l1.56.52a25.32,25.32,0,0,0,1.16-2.9,12.71,12.71,0,0,0,.65-3.41A21.17,21.17,0,0,0,114,35.31a24.51,24.51,0,0,0-3.91-.3,15.42,15.42,0,0,0-6.23,1.21"/></clipPath><clipPath id="clip-path-2" transform="translate(0 0)"><rect class="cls-1" x="88.41" y="35.33" width="37.12" height="31.23" transform="translate(27.77 139.07) rotate(-73.52)"/></clipPath><clipPath id="clip-path-3" transform="translate(0 0)"><path class="cls-1" d="M131,35.53V66.4h18.38a16,16,0,0,0,.39-3.39,15.55,15.55,0,0,0-.39-3.26H138.56v-6.1h8.29a17,17,0,0,0,.38-3.35,17.52,17.52,0,0,0-.38-3.35h-8.29V42.23h10.52a20.15,20.15,0,0,0,.34-3.4,14.06,14.06,0,0,0-.09-1.54c-.05-.54-.14-1.13-.25-1.76Z"/></clipPath><clipPath id="clip-path-4" transform="translate(0 0)"><rect class="cls-1" x="122.87" y="37.59" width="34.93" height="26.76" transform="translate(51.65 171.08) rotate(-73.52)"/></clipPath><clipPath id="clip-path-5" transform="translate(0 0)"><path class="cls-1" d="M180.42,35.36c-.6.06-1.27.14-2,.26V52.45l-10-16.83c-.4-.09-.88-.17-1.43-.24a12.24,12.24,0,0,0-3.12,0c-.51.06-1.09.14-1.72.26V66.28a18.51,18.51,0,0,0,3.48.38,17.79,17.79,0,0,0,3.44-.38V49.53l10,16.75,1.25.23a11.21,11.21,0,0,0,1.93.15,12.3,12.3,0,0,0,3-.38l0-30.66c-.6-.12-1.18-.2-1.72-.26a14.1,14.1,0,0,0-1.55-.09c-.48,0-1,0-1.63.09"/></clipPath><clipPath id="clip-path-6" transform="translate(0 0)"><rect class="cls-1" x="155.42" y="35.42" width="36.66" height="31.1" transform="translate(75.58 203.12) rotate(-73.52)"/></clipPath><clipPath id="clip-path-7" transform="translate(0 0)"><path class="cls-1" d="M197.52,35.53a16.62,16.62,0,0,0-.39,3.3,16.58,16.58,0,0,0,.39,3.4h7.16V66.28a23.79,23.79,0,0,0,3.83.38,24.21,24.21,0,0,0,3.78-.38V42.23h7.17a20.15,20.15,0,0,0,.34-3.4c0-.48,0-1-.08-1.54s-.15-1.13-.26-1.76Z"/></clipPath><clipPath id="clip-path-8" transform="translate(0 0)"><rect class="cls-1" x="190.32" y="35.81" width="36.28" height="30.57" transform="matrix(0.28, -0.96, 0.96, 0.28, 100.33, 236.5)"/></clipPath><clipPath id="clip-path-9" transform="translate(0 0)"><path class="cls-1" d="M235.5,35.21l-3.89.41V66.28a23.67,23.67,0,0,0,3.82.38,24,24,0,0,0,3.74-.38V41.71a2.19,2.19,0,0,1,.38-.08,5,5,0,0,1,.73-.05,4.51,4.51,0,0,1,3,1,3.84,3.84,0,0,1,1.2,3.13,6.43,6.43,0,0,1-.36,2.15,9.28,9.28,0,0,1-.91,1.87A7.77,7.77,0,0,1,242,51.16a4.76,4.76,0,0,1-1.13.86l-.39.21,6.1,14.05a16.06,16.06,0,0,0,2,.25c.76.06,1.43.09,2,.09s1.39,0,2.21-.09,1.57-.14,2.25-.25l-6.69-13.23a12.83,12.83,0,0,0,1.39-1.25A8,8,0,0,0,251,50.08a9.22,9.22,0,0,0,.94-2.25,10,10,0,0,0,.37-2.85,9.43,9.43,0,0,0-1.16-4.9,8.71,8.71,0,0,0-3-3,12.93,12.93,0,0,0-4.2-1.57,25.25,25.25,0,0,0-4.73-.45,34.38,34.38,0,0,0-3.75.2"/></clipPath><clipPath id="clip-path-10" transform="translate(0 0)"><rect class="cls-1" x="224.83" y="35.11" width="37" height="31.46" transform="translate(125.55 269.75) rotate(-73.52)"/></clipPath><clipPath id="clip-path-11" transform="translate(0 0)"><path class="cls-1" d="M283.81,35.38c-.59,0-1.31.12-2.17.24V52.27q0,2.16-.15,3.66a7.18,7.18,0,0,1-.61,2.44,2.79,2.79,0,0,1-1.28,1.36,5,5,0,0,1-2.17.41,4.87,4.87,0,0,1-2.15-.41A2.91,2.91,0,0,1,274,58.37a8.23,8.23,0,0,1-.62-2.44,34.1,34.1,0,0,1-.17-3.66V35.62q-1.25-.18-2.13-.24c-.58-.05-1.12-.07-1.6-.07s-1.12,0-1.72.07-1.32.12-2.15.24V53.18a27.49,27.49,0,0,0,.54,5.71A10.78,10.78,0,0,0,268,63.2a8.41,8.41,0,0,0,3.63,2.73,18.06,18.06,0,0,0,11.56,0,8.44,8.44,0,0,0,3.62-2.73,10.79,10.79,0,0,0,1.87-4.31,27.49,27.49,0,0,0,.54-5.71V35.62c-.83-.12-1.55-.2-2.15-.24s-1.16-.07-1.67-.07-1,0-1.61.07"/></clipPath><clipPath id="clip-path-12" transform="translate(0 0)"><rect class="cls-1" x="258.94" y="35.29" width="36.97" height="31.6" transform="matrix(0.28, -0.96, 0.96, 0.28, 149.73, 302.63)"/></clipPath><clipPath id="clip-path-13" transform="translate(0 0)"><path class="cls-1" d="M325.5,35.38c-.59.07-1.16.15-1.74.24l-6.31,16-6.1-16c-.57-.09-1.2-.17-1.87-.24a18.07,18.07,0,0,0-1.86-.11c-.61,0-1.26,0-2,.11s-1.35.15-2,.24l-1.25,30.66a19,19,0,0,0,3.48.38,17,17,0,0,0,3.44-.38l.47-17.61,4.21,11.55a10.67,10.67,0,0,0,1.41.24c.46,0,.91.06,1.34.06a12.27,12.27,0,0,0,1.41-.09c.52,0,1-.12,1.55-.21l4.72-11.72.6,17.78a20.42,20.42,0,0,0,3.57.38,14.62,14.62,0,0,0,2.21-.13c.56-.08,1.07-.17,1.52-.25l-1.46-30.66c-.6-.09-1.21-.17-1.84-.24a16.82,16.82,0,0,0-1.85-.11,14.78,14.78,0,0,0-1.74.11"/></clipPath><clipPath id="clip-path-14" transform="translate(0 0)"><rect class="cls-1" x="298.13" y="32.16" width="38.59" height="37.61" transform="translate(178.5 340.89) rotate(-73.52)"/></clipPath><clipPath id="clip-path-15" transform="translate(0 0)"><path class="cls-1" d="M57.08,68.11,69.46,81.93a27.59,27.59,0,0,1-13.75,3.65,28.24,28.24,0,0,1-7.17-.93,8.59,8.59,0,0,0-8.64,2.5L37.37,90a37,37,0,0,0,45.46-7L76.62,76.1h0L63.26,61.23Z"/></clipPath><clipPath id="clip-path-16" transform="translate(0 0)"><rect class="cls-1" x="33.72" y="49.83" width="52.77" height="56.39" transform="translate(-38.01 86.75) rotate(-57.48)"/></clipPath><clipPath id="clip-path-17" transform="translate(0 0)"><path class="cls-1" d="M37.29,25.61,39.8,28.4a8.61,8.61,0,0,0,8.66,2.51,27.78,27.78,0,0,1,21.16,2.78l-12.54,14,6.18,6.88,13.47-15h0l1.9-2.12,3.5-3.88h0l.82-.92a37,37,0,0,0-45.66-7"/></clipPath><clipPath id="clip-path-18" transform="translate(0 0)"><rect class="cls-1" x="33.58" y="9.27" width="53.08" height="56.69" transform="translate(-3.92 68.08) rotate(-57.48)"/></clipPath><clipPath id="clip-path-19" transform="translate(0 0)"><path class="cls-1" d="M32.06,29.59a7.37,7.37,0,0,0-.27,10.14l15,16.66a2.43,2.43,0,0,1,0,3.25L32,76.11a7.38,7.38,0,0,0,.27,10.15l1.4,1.4L60.4,57.84,33.63,28Z"/></clipPath><clipPath id="clip-path-20" transform="translate(0 0)"><rect class="cls-1" x="11.25" y="28.64" width="67.08" height="58.4" transform="matrix(0.54, -0.84, 0.84, 0.54, -28.06, 64.5)"/></clipPath><clipPath id="clip-path-21" transform="translate(0 0)"><path class="cls-1" d="M18.64,57.84a36.82,36.82,0,0,0,6.28,20.61,7.33,7.33,0,0,1,1.85-5.64L30.19,69A28,28,0,0,1,30,47.16l-3.35-3.74a7.31,7.31,0,0,1-1.79-6.09,36.8,36.8,0,0,0-6.21,20.51"/></clipPath><clipPath id="clip-path-22" transform="translate(0 0)"><rect class="cls-1" x="3.98" y="41.97" width="40.88" height="31.85" transform="translate(-37.52 47.35) rotate(-57.48)"/></clipPath></defs><title>logo</title><g id="Layer_2" data-name="Layer 2"><g id="Layer_1-2" data-name="Layer 1"><path class="cls-2" d="M109,78.56q0,2.84-4.57,2.84h-6v2.74c0,.41-.27.62-.81.62s-.78-.21-.78-.62V75c0-.34.22-.51.67-.51h6.93c3.05,0,4.57.94,4.57,2.84ZM98.45,80.19h6c2,0,2.94-.56,2.94-1.67V77.38c0-1.12-1-1.68-2.93-1.68H98.57c-.08,0-.12,0-.12.11Z" transform="translate(0 0)"/><path class="cls-2" d="M114.25,79.87c0-1.56,1.26-2.34,3.8-2.34h1.13q.75,0,.75.6c0,.4-.25.61-.75.61H118c-1.46,0-2.18.36-2.18,1.1v4.3c0,.41-.26.62-.78.62s-.78-.21-.78-.62Z" transform="translate(0 0)"/><path class="cls-2" d="M126.48,81.59v.9c0,.7.69,1.05,2,1.05h2.18c.49,0,.74.19.74.57s-.25.58-.74.58h-2.18c-2.39,0-3.59-.73-3.59-2.18V79.62c0-1.39,1.07-2.09,3.21-2.09h4.25c2.09,0,3.14.63,3.14,1.88v1.65c0,.36-.23.53-.68.53Zm0-1h7.4a.1.1,0,0,0,.11-.11v-.76c0-.68-.57-1-1.7-1h-4c-1.17,0-1.76.34-1.76,1Z" transform="translate(0 0)"/><path class="cls-2" d="M153.3,79.81c0-.72-.59-1.07-1.77-1.07h-1.06c-1.22,0-1.82.35-1.82,1.07v4.33c0,.41-.26.62-.77.62s-.78-.21-.78-.62V79.81c0-.72-.6-1.07-1.81-1.07h-1.06c-1.17,0-1.75.35-1.75,1.07v4.33c0,.41-.26.62-.78.62s-.78-.21-.78-.62V79.81c0-1.52,1.11-2.28,3.35-2.28h1.08a3.49,3.49,0,0,1,2.53.85,3.52,3.52,0,0,1,2.53-.85h1.08c2.25,0,3.37.76,3.37,2.28v4.33c0,.41-.26.62-.78.62s-.78-.21-.78-.62Z" transform="translate(0 0)"/><path class="cls-2" d="M162.22,75.7c0,.47-.28.71-.85.71s-.86-.24-.86-.71.29-.7.86-.7S162.22,75.23,162.22,75.7Zm-1.63,2.37c0-.41.26-.62.78-.62s.78.21.78.62v6.07c0,.41-.26.62-.78.62s-.78-.21-.78-.62Z" transform="translate(0 0)"/><path class="cls-2" d="M171.69,84.69q-3.8,0-3.8-2.33V78.07c0-.41.26-.62.78-.62s.78.21.78.62v4.3c0,.75.73,1.12,2.18,1.12h2.8c1.45,0,2.18-.37,2.18-1.12v-4.3c0-.41.26-.62.78-.62s.8.21.8.62v4.29q0,2.33-3.8,2.33Z" transform="translate(0 0)"/><path class="cls-2" d="M196.28,79.81c0-.72-.59-1.07-1.76-1.07h-1.06c-1.22,0-1.83.35-1.83,1.07v4.33c0,.41-.26.62-.77.62s-.78-.21-.78-.62V79.81c0-.72-.6-1.07-1.81-1.07h-1.06c-1.17,0-1.75.35-1.75,1.07v4.33c0,.41-.26.62-.78.62s-.78-.21-.78-.62V79.81q0-2.28,3.36-2.28h1.07a3.47,3.47,0,0,1,2.53.85,3.55,3.55,0,0,1,2.54-.85h1.07c2.25,0,3.37.76,3.37,2.28v4.33c0,.41-.26.62-.78.62s-.78-.21-.78-.62Z" transform="translate(0 0)"/><path class="cls-2" d="M221.48,83q0,1.65-3.36,1.65h-5.74c-.49,0-.74-.2-.74-.58s.25-.57.74-.57h5.74c1.21,0,1.81-.17,1.81-.5v-.83c0-.33-.6-.5-1.81-.5h-3c-2.24,0-3.36-.53-3.36-1.6v-.7c0-1.25,1.15-1.88,3.46-1.88h2c.5,0,.75.2.75.59a.5.5,0,0,1-.2.43.9.9,0,0,1-.55.14h-2c-1.29,0-1.93.24-1.93.72v.65c0,.4.64.61,1.92.61h3q3.27,0,3.27,1.5Z" transform="translate(0 0)"/><path class="cls-2" d="M228.52,84.69v1.94c0,.41-.26.62-.78.62S227,87,227,86.63V79.87c0-1.56,1.26-2.34,3.8-2.34h3c2.54,0,3.8.78,3.8,2.34v2.49c0,1.55-1.26,2.33-3.8,2.33Zm0-1.2h5.24c1.45,0,2.18-.37,2.18-1.12V79.86c0-.75-.73-1.12-2.18-1.12H230.7c-1.46,0-2.18.37-2.18,1.12Z" transform="translate(0 0)"/><path class="cls-2" d="M244.7,81.59v.9c0,.7.68,1.05,2.05,1.05h2.18c.49,0,.73.19.73.57s-.24.58-.73.58h-2.18c-2.4,0-3.6-.73-3.6-2.18V79.62c0-1.39,1.07-2.09,3.21-2.09h4.26c2.09,0,3.14.63,3.14,1.88v1.65c0,.36-.23.53-.68.53Zm0-1h7.39c.08,0,.12,0,.12-.11v-.76q0-1-1.71-1h-4.05c-1.17,0-1.75.34-1.75,1Z" transform="translate(0 0)"/><path class="cls-2" d="M262.9,84.69q-3.81,0-3.81-2.33V79.87q0-2.34,3.81-2.34H268c.51,0,.76.2.76.6s-.25.61-.76.61h-5.16c-1.45,0-2.18.37-2.18,1.12v2.51c0,.75.73,1.12,2.18,1.12H268c.51,0,.76.2.76.59s-.25.61-.76.61Z" transform="translate(0 0)"/><path class="cls-2" d="M275.84,75.7c0,.47-.28.71-.85.71s-.85-.24-.85-.71.28-.7.85-.7S275.84,75.23,275.84,75.7Zm-1.63,2.37c0-.41.26-.62.78-.62s.78.21.78.62v6.07c0,.41-.26.62-.78.62s-.78-.21-.78-.62Z" transform="translate(0 0)"/><path class="cls-2" d="M284.3,84.69c-2.1,0-3.15-.66-3.15-2v-.84q0-2,3.15-2h6.26v-.22c0-.68-.61-1-1.82-1h-2.07c-.49,0-.74-.19-.74-.57s.25-.59.74-.59h2.07c2.23,0,3.35.73,3.35,2.19v2.89c0,1.38-1.07,2.08-3.21,2.08Zm4.49-1.15c1.18,0,1.77-.33,1.77-1V81h-6.15c-1.14,0-1.72.3-1.72.9v.76c0,.61.58.92,1.72.92Z" transform="translate(0 0)"/><path class="cls-2" d="M297.8,74.83c0-.41.26-.61.78-.61s.78.2.78.61v9.31c0,.41-.26.62-.78.62s-.78-.21-.78-.62Z" transform="translate(0 0)"/><path class="cls-2" d="M306.77,75.7c0,.47-.29.71-.86.71s-.85-.24-.85-.71.28-.7.85-.7S306.77,75.23,306.77,75.7Zm-1.64,2.37c0-.41.26-.62.78-.62s.78.21.78.62v6.07c0,.41-.26.62-.78.62s-.78-.21-.78-.62Z" transform="translate(0 0)"/><path class="cls-2" d="M321.93,83c0,1.1-1.11,1.65-3.35,1.65h-5.75c-.49,0-.73-.2-.73-.58s.24-.57.73-.57h5.75c1.2,0,1.81-.17,1.81-.5v-.83c0-.33-.61-.5-1.81-.5h-3c-2.23,0-3.35-.53-3.35-1.6v-.7c0-1.25,1.15-1.88,3.46-1.88h2c.5,0,.76.2.76.59a.5.5,0,0,1-.2.43.93.93,0,0,1-.56.14h-2c-1.29,0-1.93.24-1.93.72v.65c0,.4.64.61,1.91.61h3c2.17,0,3.26.5,3.26,1.5Z" transform="translate(0 0)"/><path class="cls-2" d="M329.06,78.74v5.4c0,.41-.25.62-.76.62s-.8-.21-.8-.62v-5.4h-.6c-.48,0-.72-.2-.72-.58s.24-.57.72-.57h.6V76.23c0-.41.26-.62.77-.62s.79.21.79.62v1.36h2.53c.5,0,.74.19.74.57s-.24.58-.74.58Z" transform="translate(0 0)"/><g class="cls-3"><g class="cls-4"><polygon class="cls-5" points="127.22 66.63 125.28 73.17 86.73 73.17 86.73 28.72 127.22 28.72 127.22 66.63"/><polygon class="cls-5" points="125.28 73.17 127.22 66.63 127.22 73.17 125.28 73.17"/></g></g><g class="cls-6"><g class="cls-7"><polygon class="cls-5" points="137.93 30.42 125.77 71.51 122.56 71.51 122.56 30.42 137.93 30.42"/><polygon class="cls-5" points="141.35 30.42 129.19 71.51 125.77 71.51 137.93 30.42 141.35 30.42"/><polygon class="cls-8" points="144.77 30.42 132.62 71.51 129.19 71.51 141.35 30.42 144.77 30.42"/><polygon class="cls-9" points="148.19 30.42 136.04 71.51 132.62 71.51 144.77 30.42 148.19 30.42"/><polygon class="cls-10" points="151.62 30.42 139.46 71.51 136.04 71.51 148.19 30.42 151.62 30.42"/><polygon class="cls-11" points="155.04 30.42 142.89 71.51 139.46 71.51 151.62 30.42 155.04 30.42"/><polygon class="cls-12" points="158.12 31.58 146.31 71.51 142.89 71.51 155.04 30.42 158.12 30.42 158.12 31.58"/><polygon class="cls-13" points="158.12 43.15 149.73 71.51 146.31 71.51 158.12 31.58 158.12 43.15"/><polygon class="cls-14" points="158.12 54.72 153.16 71.51 149.73 71.51 158.12 43.15 158.12 54.72"/><polygon class="cls-15" points="158.12 66.29 156.58 71.51 153.16 71.51 158.12 54.72 158.12 66.29"/><polygon class="cls-16" points="156.58 71.51 158.12 66.29 158.12 71.51 156.58 71.51"/></g></g><g class="cls-17"><g class="cls-18"><polygon class="cls-11" points="155.47 28.98 153.63 35.18 153.63 28.98 155.47 28.98"/><polygon class="cls-12" points="158.89 28.98 153.63 46.75 153.63 35.18 155.47 28.98 158.89 28.98"/><polygon class="cls-13" points="162.31 28.98 153.63 58.32 153.63 46.75 158.89 28.98 162.31 28.98"/><polygon class="cls-14" points="165.74 28.98 153.63 69.89 153.63 58.32 162.31 28.98 165.74 28.98"/><polygon class="cls-15" points="169.16 28.98 156.15 72.96 153.63 72.96 153.63 69.89 165.74 28.98 169.16 28.98"/><polygon class="cls-16" points="172.58 28.98 159.57 72.96 156.15 72.96 169.16 28.98 172.58 28.98"/><polygon class="cls-19" points="176.01 28.98 163 72.96 159.57 72.96 172.58 28.98 176.01 28.98"/><polygon class="cls-20" points="179.43 28.98 166.42 72.96 163 72.96 176.01 28.98 179.43 28.98"/><polygon class="cls-21" points="182.85 28.98 169.84 72.96 166.42 72.96 179.43 28.98 182.85 28.98"/><polygon class="cls-22" points="186.28 28.98 173.26 72.96 169.84 72.96 182.85 28.98 186.28 28.98"/><polygon class="cls-23" points="189.7 28.98 176.69 72.96 173.26 72.96 186.28 28.98 189.7 28.98"/><polygon class="cls-24" points="193.12 28.98 180.11 72.96 176.69 72.96 189.7 28.98 193.12 28.98"/><polygon class="cls-25" points="193.86 38.05 183.53 72.96 180.11 72.96 193.12 28.98 193.86 28.98 193.86 38.05"/><polygon class="cls-26" points="193.86 49.62 186.96 72.96 183.53 72.96 193.86 38.05 193.86 49.62"/><polygon class="cls-27" points="193.86 61.19 190.38 72.96 186.96 72.96 193.86 49.62 193.86 61.19"/><polygon class="cls-28" points="193.86 72.76 193.8 72.96 190.38 72.96 193.86 61.19 193.86 72.76"/><polygon class="cls-29" points="193.8 72.96 193.86 72.76 193.86 72.96 193.8 72.96"/></g></g><g class="cls-30"><g class="cls-31"><polygon class="cls-23" points="189.59 29.36 188.66 32.49 188.66 29.36 189.59 29.36"/><polygon class="cls-24" points="193.01 29.36 188.66 44.06 188.66 32.49 189.59 29.36 193.01 29.36"/><polygon class="cls-25" points="196.43 29.36 188.66 55.63 188.66 44.06 193.01 29.36 196.43 29.36"/><polygon class="cls-26" points="199.85 29.36 188.66 67.2 188.66 55.63 196.43 29.36 199.85 29.36"/><polygon class="cls-27" points="203.28 29.36 190.42 72.83 188.66 72.83 188.66 67.2 199.85 29.36 203.28 29.36"/><polygon class="cls-28" points="206.7 29.36 193.84 72.83 190.42 72.83 203.28 29.36 206.7 29.36"/><polygon class="cls-29" points="210.12 29.36 197.26 72.83 193.84 72.83 206.7 29.36 210.12 29.36"/><polygon class="cls-32" points="213.55 29.36 200.69 72.83 197.26 72.83 210.12 29.36 213.55 29.36"/><polygon class="cls-33" points="216.97 29.36 204.11 72.83 200.69 72.83 213.55 29.36 216.97 29.36"/><polygon class="cls-34" points="220.39 29.36 207.53 72.83 204.11 72.83 216.97 29.36 220.39 29.36"/><polygon class="cls-35" points="223.82 29.36 210.96 72.83 207.53 72.83 220.39 29.36 223.82 29.36"/><polygon class="cls-36" points="227.24 29.36 214.38 72.83 210.96 72.83 223.82 29.36 227.24 29.36"/><polygon class="cls-37" points="228.27 37.45 217.8 72.83 214.38 72.83 227.24 29.36 228.27 29.36 228.27 37.45"/><polygon class="cls-38" points="228.27 49.02 221.22 72.83 217.8 72.83 228.27 37.45 228.27 49.02"/><polygon class="cls-39" points="228.27 60.59 224.65 72.83 221.22 72.83 228.27 49.02 228.27 60.59"/><polygon class="cls-40" points="228.27 72.16 228.07 72.83 224.65 72.83 228.27 60.59 228.27 72.16"/><polygon class="cls-41" points="228.07 72.83 228.27 72.16 228.27 72.83 228.07 72.83"/></g></g><g class="cls-42"><g class="cls-43"><polygon class="cls-35" points="224.03 28.63 223 32.12 223 28.63 224.03 28.63"/><polygon class="cls-36" points="227.45 28.63 223 43.69 223 32.12 224.03 28.63 227.45 28.63"/><polygon class="cls-37" points="230.88 28.63 223 55.26 223 43.69 227.45 28.63 230.88 28.63"/><polygon class="cls-38" points="234.3 28.63 223 66.83 223 55.26 230.88 28.63 234.3 28.63"/><polygon class="cls-39" points="237.72 28.63 224.59 73.04 223 73.04 223 66.83 234.3 28.63 237.72 28.63"/><polygon class="cls-40" points="241.15 28.63 228.01 73.04 224.59 73.04 237.72 28.63 241.15 28.63"/><polygon class="cls-41" points="244.57 28.63 231.43 73.04 228.01 73.04 241.15 28.63 244.57 28.63"/><polygon class="cls-44" points="247.99 28.63 234.85 73.04 231.43 73.04 244.57 28.63 247.99 28.63"/><polygon class="cls-45" points="251.41 28.63 238.28 73.04 234.85 73.04 247.99 28.63 251.41 28.63"/><polygon class="cls-46" points="254.84 28.63 241.7 73.04 238.28 73.04 251.41 28.63 254.84 28.63"/><polygon class="cls-47" points="258.26 28.63 245.12 73.04 241.7 73.04 254.84 28.63 258.26 28.63"/><polygon class="cls-48" points="261.69 28.63 248.55 73.04 245.12 73.04 258.26 28.63 261.69 28.63"/><polygon class="cls-49" points="263.67 33.51 251.97 73.04 248.55 73.04 261.69 28.63 263.67 28.63 263.67 33.51"/><polygon class="cls-50" points="263.67 45.08 255.39 73.04 251.97 73.04 263.67 33.51 263.67 45.08"/><polygon class="cls-51" points="263.67 56.65 258.82 73.04 255.39 73.04 263.67 45.08 263.67 56.65"/><polygon class="cls-52" points="263.67 68.22 262.24 73.04 258.82 73.04 263.67 56.65 263.67 68.22"/><polygon class="cls-53" points="262.24 73.04 263.67 68.22 263.67 73.04 262.24 73.04"/></g></g><g class="cls-54"><g class="cls-55"><polygon class="cls-47" points="258.19 28.89 257.03 32.79 257.03 28.89 258.19 28.89"/><polygon class="cls-48" points="261.61 28.89 257.03 44.36 257.03 32.79 258.19 28.89 261.61 28.89"/><polygon class="cls-49" points="265.03 28.89 257.03 55.93 257.03 44.36 261.61 28.89 265.03 28.89"/><polygon class="cls-50" points="268.46 28.89 257.03 67.5 257.03 55.93 265.03 28.89 268.46 28.89"/><polygon class="cls-51" points="271.88 28.89 258.74 73.3 257.03 73.3 257.03 67.5 268.46 28.89 271.88 28.89"/><polygon class="cls-52" points="275.3 28.89 262.16 73.3 258.74 73.3 271.88 28.89 275.3 28.89"/><polygon class="cls-53" points="278.73 28.89 265.58 73.3 262.16 73.3 275.3 28.89 278.73 28.89"/><polygon class="cls-56" points="282.15 28.89 269.01 73.3 265.58 73.3 278.73 28.89 282.15 28.89"/><polygon class="cls-57" points="285.57 28.89 272.43 73.3 269.01 73.3 282.15 28.89 285.57 28.89"/><polygon class="cls-58" points="288.99 28.89 275.85 73.3 272.43 73.3 285.57 28.89 288.99 28.89"/><polygon class="cls-2" points="292.42 28.89 279.28 73.3 275.85 73.3 288.99 28.89 292.42 28.89"/><polygon class="cls-2" points="279.28 73.3 292.42 28.89 297.82 28.89 297.82 73.3 279.28 73.3"/></g></g><g class="cls-59"><g class="cls-60"><rect class="cls-2" x="293.92" y="27.13" width="47.01" height="47.67"/></g></g><g class="cls-61"><g class="cls-62"><polygon class="cls-5" points="68.84 40.62 23.64 111.51 22.14 110.56 22.14 40.62 68.84 40.62"/><polygon class="cls-5" points="69.75 40.62 24.29 111.92 23.64 111.51 68.84 40.62 69.75 40.62"/><polygon class="cls-8" points="70.67 40.62 24.93 112.34 24.29 111.92 69.75 40.62 70.67 40.62"/><polygon class="cls-9" points="71.58 40.62 25.58 112.75 24.93 112.34 70.67 40.62 71.58 40.62"/><polygon class="cls-10" points="72.49 40.62 26.23 113.16 25.58 112.75 71.58 40.62 72.49 40.62"/><polygon class="cls-11" points="73.4 40.62 26.88 113.58 26.23 113.16 72.49 40.62 73.4 40.62"/><polygon class="cls-12" points="74.31 40.62 27.53 113.99 26.88 113.58 73.4 40.62 74.31 40.62"/><polygon class="cls-13" points="75.22 40.62 28.18 114.4 27.53 113.99 74.31 40.62 75.22 40.62"/><polygon class="cls-14" points="76.14 40.62 28.82 114.82 28.18 114.4 75.22 40.62 76.14 40.62"/><polygon class="cls-15" points="77.05 40.62 29.47 115.23 28.82 114.82 76.14 40.62 77.05 40.62"/><polygon class="cls-16" points="77.96 40.62 30.25 115.44 29.8 115.44 29.47 115.23 77.05 40.62 77.96 40.62"/><polygon class="cls-19" points="78.87 40.62 31.16 115.44 30.25 115.44 77.96 40.62 78.87 40.62"/><polygon class="cls-20" points="79.78 40.62 32.07 115.44 31.16 115.44 78.87 40.62 79.78 40.62"/><polygon class="cls-21" points="80.69 40.62 32.98 115.44 32.07 115.44 79.78 40.62 80.69 40.62"/><polygon class="cls-22" points="81.6 40.62 33.9 115.44 32.98 115.44 80.69 40.62 81.6 40.62"/><polygon class="cls-23" points="82.52 40.62 34.81 115.44 33.9 115.44 81.6 40.62 82.52 40.62"/><polygon class="cls-24" points="83.43 40.62 35.72 115.44 34.81 115.44 82.52 40.62 83.43 40.62"/><polygon class="cls-25" points="84.34 40.62 36.63 115.44 35.72 115.44 83.43 40.62 84.34 40.62"/><polygon class="cls-26" points="85.25 40.62 37.54 115.44 36.63 115.44 84.34 40.62 85.25 40.62"/><polygon class="cls-27" points="86.16 40.62 38.45 115.44 37.54 115.44 85.25 40.62 86.16 40.62"/><polygon class="cls-28" points="87.07 40.62 39.37 115.44 38.45 115.44 86.16 40.62 87.07 40.62"/><polygon class="cls-29" points="87.99 40.62 40.28 115.44 39.37 115.44 87.07 40.62 87.99 40.62"/><polygon class="cls-32" points="88.9 40.62 41.19 115.44 40.28 115.44 87.99 40.62 88.9 40.62"/><polygon class="cls-33" points="89.81 40.62 42.1 115.44 41.19 115.44 88.9 40.62 89.81 40.62"/><polygon class="cls-34" points="90.41 40.62 90.63 40.77 43.01 115.44 42.1 115.44 89.81 40.62 90.41 40.62"/><polygon class="cls-35" points="90.63 40.77 91.28 41.18 43.92 115.44 43.01 115.44 90.63 40.77"/><polygon class="cls-36" points="91.28 41.18 91.93 41.59 44.84 115.44 43.92 115.44 91.28 41.18"/><polygon class="cls-37" points="91.93 41.59 92.57 42.01 45.75 115.44 44.84 115.44 91.93 41.59"/><polygon class="cls-38" points="92.57 42.01 93.22 42.42 46.66 115.44 45.75 115.44 92.57 42.01"/><polygon class="cls-39" points="93.22 42.42 93.87 42.83 47.57 115.44 46.66 115.44 93.22 42.42"/><polygon class="cls-40" points="93.87 42.83 94.52 43.25 48.48 115.44 47.57 115.44 93.87 42.83"/><polygon class="cls-41" points="94.52 43.25 95.17 43.66 49.39 115.44 48.48 115.44 94.52 43.25"/><polygon class="cls-44" points="95.17 43.66 95.81 44.07 50.31 115.44 49.39 115.44 95.17 43.66"/><polygon class="cls-45" points="95.81 44.07 96.46 44.49 51.22 115.44 50.31 115.44 95.81 44.07"/><polygon class="cls-46" points="96.46 44.49 97.11 44.9 52.13 115.44 51.22 115.44 96.46 44.49"/><polygon class="cls-47" points="97.11 44.9 97.76 45.31 53.04 115.44 52.13 115.44 97.11 44.9"/><polygon class="cls-48" points="97.76 45.31 98.06 45.51 98.06 46.27 53.95 115.44 53.04 115.44 97.76 45.31"/><polygon class="cls-49" points="98.06 47.7 54.86 115.44 53.95 115.44 98.06 46.27 98.06 47.7"/><polygon class="cls-50" points="98.06 49.12 55.78 115.44 54.86 115.44 98.06 47.7 98.06 49.12"/><polygon class="cls-51" points="98.06 50.55 56.69 115.44 55.78 115.44 98.06 49.12 98.06 50.55"/><polygon class="cls-52" points="98.06 51.98 57.6 115.44 56.69 115.44 98.06 50.55 98.06 51.98"/><polygon class="cls-53" points="98.06 53.41 58.51 115.44 57.6 115.44 98.06 51.98 98.06 53.41"/><polygon class="cls-56" points="98.06 54.84 59.42 115.44 58.51 115.44 98.06 53.41 98.06 54.84"/><polygon class="cls-57" points="98.06 56.27 60.33 115.44 59.42 115.44 98.06 54.84 98.06 56.27"/><polygon class="cls-58" points="98.06 57.7 61.25 115.44 60.33 115.44 98.06 56.27 98.06 57.7"/><polygon class="cls-2" points="98.06 59.13 62.16 115.44 61.25 115.44 98.06 57.7 98.06 59.13"/><polygon class="cls-2" points="62.16 115.44 98.06 59.13 98.06 115.44 62.16 115.44"/></g></g><g class="cls-63"><g class="cls-64"><polygon class="cls-5" points="53.62 0 21.95 49.66 21.95 0 53.62 0"/><polygon class="cls-5" points="54.73 0 21.95 51.41 21.95 49.66 53.62 0 54.73 0"/><polygon class="cls-8" points="55.85 0 21.95 53.16 21.95 51.41 54.73 0 55.85 0"/><polygon class="cls-9" points="56.96 0 21.95 54.9 21.95 53.16 55.85 0 56.96 0"/><polygon class="cls-10" points="58.08 0 21.95 56.65 21.95 54.9 56.96 0 58.08 0"/><polygon class="cls-11" points="59.19 0 21.95 58.4 21.95 56.65 58.08 0 59.19 0"/><polygon class="cls-12" points="60.31 0 21.95 60.15 21.95 58.4 59.19 0 60.31 0"/><polygon class="cls-13" points="61.42 0 21.95 61.89 21.95 60.15 60.31 0 61.42 0"/><polygon class="cls-14" points="62.53 0 21.95 63.64 21.95 61.89 61.42 0 62.53 0"/><polygon class="cls-15" points="63.65 0 21.95 65.39 21.95 63.64 62.53 0 63.65 0"/><polygon class="cls-16" points="64.76 0 21.95 67.14 21.95 65.39 63.65 0 64.76 0"/><polygon class="cls-19" points="65.88 0 21.95 68.88 21.95 67.14 64.76 0 65.88 0"/><polygon class="cls-20" points="66.99 0 21.95 70.63 21.95 68.88 65.88 0 66.99 0"/><polygon class="cls-21" points="68.11 0 21.95 72.38 21.95 70.63 66.99 0 68.11 0"/><polygon class="cls-22" points="69.22 0 21.95 74.13 21.95 72.38 68.11 0 69.22 0"/><polygon class="cls-23" points="70.34 0 22.36 75.23 21.95 75.23 21.95 74.13 69.22 0 70.34 0"/><polygon class="cls-24" points="71.45 0 23.48 75.23 22.36 75.23 70.34 0 71.45 0"/><polygon class="cls-25" points="72.56 0 24.59 75.23 23.48 75.23 71.45 0 72.56 0"/><polygon class="cls-26" points="73.68 0 25.7 75.23 24.59 75.23 72.56 0 73.68 0"/><polygon class="cls-27" points="74.79 0 26.82 75.23 25.7 75.23 73.68 0 74.79 0"/><polygon class="cls-28" points="75.91 0 27.93 75.23 26.82 75.23 74.79 0 75.91 0"/><polygon class="cls-29" points="77.02 0 29.05 75.23 27.93 75.23 75.91 0 77.02 0"/><polygon class="cls-32" points="78.14 0 30.16 75.23 29.05 75.23 77.02 0 78.14 0"/><polygon class="cls-33" points="79.25 0 31.28 75.23 30.16 75.23 78.14 0 79.25 0"/><polygon class="cls-34" points="80.37 0 32.39 75.23 31.28 75.23 79.25 0 80.37 0"/><polygon class="cls-35" points="81.48 0 33.51 75.23 32.39 75.23 80.37 0 81.48 0"/><polygon class="cls-36" points="82.6 0 34.62 75.23 33.51 75.23 81.48 0 82.6 0"/><polygon class="cls-37" points="83.71 0 35.73 75.23 34.62 75.23 82.6 0 83.71 0"/><polygon class="cls-38" points="84.82 0 36.85 75.23 35.73 75.23 83.71 0 84.82 0"/><polygon class="cls-39" points="85.94 0 37.96 75.23 36.85 75.23 84.82 0 85.94 0"/><polygon class="cls-40" points="87.05 0 39.08 75.23 37.96 75.23 85.94 0 87.05 0"/><polygon class="cls-41" points="88.17 0 40.19 75.23 39.08 75.23 87.05 0 88.17 0"/><polygon class="cls-44" points="89.28 0 41.31 75.23 40.19 75.23 88.17 0 89.28 0"/><polygon class="cls-45" points="90.4 0 42.42 75.23 41.31 75.23 89.28 0 90.4 0"/><polygon class="cls-46" points="91.51 0 43.54 75.23 42.42 75.23 90.4 0 91.51 0"/><polygon class="cls-47" points="92.63 0 44.65 75.23 43.54 75.23 91.51 0 92.63 0"/><polygon class="cls-48" points="93.74 0 45.77 75.23 44.65 75.23 92.63 0 93.74 0"/><polygon class="cls-49" points="94.86 0 46.88 75.23 45.77 75.23 93.74 0 94.86 0"/><polygon class="cls-50" points="95.97 0 47.99 75.23 46.88 75.23 94.86 0 95.97 0"/><polygon class="cls-51" points="97.08 0 49.11 75.23 47.99 75.23 95.97 0 97.08 0"/><polygon class="cls-52" points="98.2 0 50.22 75.23 49.11 75.23 97.08 0 98.2 0"/><polygon class="cls-53" points="98.29 1.6 51.34 75.23 50.22 75.23 98.2 0 98.29 0 98.29 1.6"/><polygon class="cls-56" points="98.29 3.35 52.45 75.23 51.34 75.23 98.29 1.6 98.29 3.35"/><polygon class="cls-57" points="98.29 5.1 53.57 75.23 52.45 75.23 98.29 3.35 98.29 5.1"/><polygon class="cls-58" points="98.29 6.84 54.68 75.23 53.57 75.23 98.29 5.1 98.29 6.84"/><polygon class="cls-2" points="98.29 8.59 55.8 75.23 54.68 75.23 98.29 6.84 98.29 8.59"/><polygon class="cls-2" points="55.8 75.23 98.29 8.59 98.29 75.23 55.8 75.23"/></g></g><g class="cls-65"><g class="cls-66"><polygon class="cls-5" points="41.08 13.86 2.13 74.93 2.13 13.86 41.08 13.86"/><polygon class="cls-5" points="42.66 13.86 2.13 77.41 2.13 74.93 41.08 13.86 42.66 13.86"/><polygon class="cls-8" points="44.24 13.86 2.13 79.89 2.13 77.41 42.66 13.86 44.24 13.86"/><polygon class="cls-9" points="45.82 13.86 2.13 82.37 2.13 79.89 44.24 13.86 45.82 13.86"/><polygon class="cls-10" points="47.4 13.86 2.13 84.84 2.13 82.37 45.82 13.86 47.4 13.86"/><polygon class="cls-11" points="48.98 13.86 2.13 87.32 2.13 84.84 47.4 13.86 48.98 13.86"/><polygon class="cls-12" points="50.56 13.86 2.13 89.8 2.13 87.32 48.98 13.86 50.56 13.86"/><polygon class="cls-13" points="52.14 13.86 2.13 92.28 2.13 89.8 50.56 13.86 52.14 13.86"/><polygon class="cls-14" points="53.72 13.86 2.13 94.76 2.13 92.28 52.14 13.86 53.72 13.86"/><polygon class="cls-15" points="55.3 13.86 2.13 97.24 2.13 94.76 53.72 13.86 55.3 13.86"/><polygon class="cls-16" points="56.88 13.86 2.13 99.72 2.13 97.24 55.3 13.86 56.88 13.86"/><polygon class="cls-19" points="58.47 13.86 2.38 101.82 2.13 101.82 2.13 99.72 56.88 13.86 58.47 13.86"/><polygon class="cls-20" points="60.05 13.86 3.96 101.82 2.38 101.82 58.47 13.86 60.05 13.86"/><polygon class="cls-21" points="61.63 13.86 5.54 101.82 3.96 101.82 60.05 13.86 61.63 13.86"/><polygon class="cls-22" points="63.21 13.86 7.12 101.82 5.54 101.82 61.63 13.86 63.21 13.86"/><polygon class="cls-23" points="64.79 13.86 8.7 101.82 7.12 101.82 63.21 13.86 64.79 13.86"/><polygon class="cls-24" points="66.37 13.86 10.28 101.82 8.7 101.82 64.79 13.86 66.37 13.86"/><polygon class="cls-25" points="67.95 13.86 11.86 101.82 10.28 101.82 66.37 13.86 67.95 13.86"/><polygon class="cls-26" points="69.53 13.86 13.44 101.82 11.86 101.82 67.95 13.86 69.53 13.86"/><polygon class="cls-27" points="71.11 13.86 15.02 101.82 13.44 101.82 69.53 13.86 71.11 13.86"/><polygon class="cls-28" points="72.69 13.86 16.61 101.82 15.02 101.82 71.11 13.86 72.69 13.86"/><polygon class="cls-29" points="74.27 13.86 18.19 101.82 16.61 101.82 72.69 13.86 74.27 13.86"/><polygon class="cls-32" points="75.85 13.86 19.77 101.82 18.19 101.82 74.27 13.86 75.85 13.86"/><polygon class="cls-33" points="77.43 13.86 21.35 101.82 19.77 101.82 75.85 13.86 77.43 13.86"/><polygon class="cls-34" points="79.02 13.86 22.93 101.82 21.35 101.82 77.43 13.86 79.02 13.86"/><polygon class="cls-35" points="80.6 13.86 24.51 101.82 22.93 101.82 79.02 13.86 80.6 13.86"/><polygon class="cls-36" points="82.18 13.86 26.09 101.82 24.51 101.82 80.6 13.86 82.18 13.86"/><polygon class="cls-37" points="83.76 13.86 27.67 101.82 26.09 101.82 82.18 13.86 83.76 13.86"/><polygon class="cls-38" points="85.34 13.86 29.25 101.82 27.67 101.82 83.76 13.86 85.34 13.86"/><polygon class="cls-39" points="86.92 13.86 30.83 101.82 29.25 101.82 85.34 13.86 86.92 13.86"/><polygon class="cls-40" points="87.44 15.53 32.41 101.82 30.83 101.82 86.92 13.86 87.44 13.86 87.44 15.53"/><polygon class="cls-41" points="87.44 18.01 33.99 101.82 32.41 101.82 87.44 15.53 87.44 18.01"/><polygon class="cls-44" points="87.44 20.48 35.57 101.82 33.99 101.82 87.44 18.01 87.44 20.48"/><polygon class="cls-45" points="87.44 22.96 37.16 101.82 35.57 101.82 87.44 20.48 87.44 22.96"/><polygon class="cls-46" points="87.44 25.44 38.74 101.82 37.16 101.82 87.44 22.96 87.44 25.44"/><polygon class="cls-47" points="87.44 27.92 40.32 101.82 38.74 101.82 87.44 25.44 87.44 27.92"/><polygon class="cls-48" points="87.44 30.4 41.9 101.82 40.32 101.82 87.44 27.92 87.44 30.4"/><polygon class="cls-49" points="87.44 32.88 43.48 101.82 41.9 101.82 87.44 30.4 87.44 32.88"/><polygon class="cls-50" points="87.44 35.36 45.06 101.82 43.48 101.82 87.44 32.88 87.44 35.36"/><polygon class="cls-51" points="87.44 37.84 46.64 101.82 45.06 101.82 87.44 35.36 87.44 37.84"/><polygon class="cls-52" points="87.44 40.32 48.22 101.82 46.64 101.82 87.44 37.84 87.44 40.32"/><polygon class="cls-53" points="87.44 42.8 49.8 101.82 48.22 101.82 87.44 40.32 87.44 42.8"/><polygon class="cls-56" points="87.44 45.27 51.38 101.82 49.8 101.82 87.44 42.8 87.44 45.27"/><polygon class="cls-57" points="87.44 47.75 52.96 101.82 51.38 101.82 87.44 45.27 87.44 47.75"/><polygon class="cls-58" points="87.44 50.23 54.54 101.82 52.96 101.82 87.44 47.75 87.44 50.23"/><polygon class="cls-2" points="87.44 52.71 56.13 101.82 54.54 101.82 87.44 50.23 87.44 52.71"/><polygon class="cls-2" points="56.13 101.82 87.44 52.71 87.44 101.82 56.13 101.82"/></g></g><g class="cls-67"><g class="cls-68"><polygon class="cls-5" points="29.45 32.09 0 78.28 0 32.09 29.45 32.09"/><polygon class="cls-5" points="31.03 32.09 0 80.76 0 78.28 29.45 32.09 31.03 32.09"/><polygon class="cls-8" points="32.61 32.09 0 83.23 0 80.76 31.03 32.09 32.61 32.09"/><polygon class="cls-9" points="34.19 32.09 1.29 83.69 0 83.69 0 83.23 32.61 32.09 34.19 32.09"/><polygon class="cls-10" points="35.77 32.09 2.87 83.69 1.29 83.69 34.19 32.09 35.77 32.09"/><polygon class="cls-11" points="37.35 32.09 4.45 83.69 2.87 83.69 35.77 32.09 37.35 32.09"/><polygon class="cls-12" points="38.94 32.09 6.03 83.69 4.45 83.69 37.35 32.09 38.94 32.09"/><polygon class="cls-13" points="40.52 32.09 7.61 83.69 6.03 83.69 38.94 32.09 40.52 32.09"/><polygon class="cls-14" points="42.1 32.09 9.2 83.69 7.61 83.69 40.52 32.09 42.1 32.09"/><polygon class="cls-15" points="43.68 32.09 10.78 83.69 9.2 83.69 42.1 32.09 43.68 32.09"/><polygon class="cls-16" points="45.26 32.09 12.36 83.69 10.78 83.69 43.68 32.09 45.26 32.09"/><polygon class="cls-19" points="46.84 32.09 13.94 83.69 12.36 83.69 45.26 32.09 46.84 32.09"/><polygon class="cls-20" points="48.42 32.09 15.52 83.69 13.94 83.69 46.84 32.09 48.42 32.09"/><polygon class="cls-21" points="48.84 33.92 17.1 83.69 15.52 83.69 48.42 32.09 48.84 32.09 48.84 33.92"/><polygon class="cls-22" points="48.84 36.4 18.68 83.69 17.1 83.69 48.84 33.92 48.84 36.4"/><polygon class="cls-23" points="48.84 38.88 20.26 83.69 18.68 83.69 48.84 36.4 48.84 38.88"/><polygon class="cls-24" points="48.84 41.36 21.84 83.69 20.26 83.69 48.84 38.88 48.84 41.36"/><polygon class="cls-25" points="48.84 43.84 23.42 83.69 21.84 83.69 48.84 41.36 48.84 43.84"/><polygon class="cls-26" points="48.84 46.31 25 83.69 23.42 83.69 48.84 43.84 48.84 46.31"/><polygon class="cls-27" points="48.84 48.79 26.58 83.69 25 83.69 48.84 46.31 48.84 48.79"/><polygon class="cls-28" points="48.84 51.27 28.16 83.69 26.58 83.69 48.84 48.79 48.84 51.27"/><polygon class="cls-29" points="48.84 53.75 29.75 83.69 28.16 83.69 48.84 51.27 48.84 53.75"/><polygon class="cls-32" points="48.84 56.23 31.33 83.69 29.75 83.69 48.84 53.75 48.84 56.23"/><polygon class="cls-33" points="48.84 58.71 32.91 83.69 31.33 83.69 48.84 56.23 48.84 58.71"/><polygon class="cls-34" points="48.84 61.19 34.49 83.69 32.91 83.69 48.84 58.71 48.84 61.19"/><polygon class="cls-35" points="48.84 63.67 36.07 83.69 34.49 83.69 48.84 61.19 48.84 63.67"/><polygon class="cls-36" points="48.84 66.14 37.65 83.69 36.07 83.69 48.84 63.67 48.84 66.14"/><polygon class="cls-37" points="48.84 68.62 39.23 83.69 37.65 83.69 48.84 66.14 48.84 68.62"/><polygon class="cls-38" points="48.84 71.1 40.81 83.69 39.23 83.69 48.84 68.62 48.84 71.1"/><polygon class="cls-39" points="48.84 73.58 42.39 83.69 40.81 83.69 48.84 71.1 48.84 73.58"/><polygon class="cls-40" points="48.84 76.06 43.97 83.69 42.39 83.69 48.84 73.58 48.84 76.06"/><polygon class="cls-41" points="48.84 78.54 45.55 83.69 43.97 83.69 48.84 76.06 48.84 78.54"/><polygon class="cls-44" points="48.84 81.02 47.13 83.69 45.55 83.69 48.84 78.54 48.84 81.02"/><polygon class="cls-45" points="48.84 83.5 48.72 83.69 47.13 83.69 48.84 81.02 48.84 83.5"/><polygon class="cls-46" points="48.72 83.69 48.84 83.5 48.84 83.69 48.72 83.69"/></g></g></g></g></svg>