<svg xmlns="http://www.w3.org/2000/svg" width="237" height="207" viewBox="0 0 237 207">
  <defs>
    <style>
      .cls-1 {
        fill: #db524c;
      }

      .cls-1, .cls-11, .cls-2, .cls-3, .cls-4, .cls-5 {
        fill-rule: evenodd;
      }

      .cls-2 {
        fill: none;
        stroke: #db524c;
      }

      .cls-2, .cls-6, .cls-7, .cls-9 {
        stroke-width: 1px;
      }

      .cls-3 {
        fill: #0082d5;
      }

      .cls-4 {
        fill: #ff9948;
      }

      .cls-5 {
        fill: #04be5b;
      }

      .cls-11, .cls-6, .cls-7, .cls-9 {
        fill: #fff;
      }

      .cls-6 {
        stroke: #555;
      }

      .cls-6, .cls-7, .cls-9 {
        stroke-linejoin: round;
      }

      .cls-7 {
        stroke: #f34834;
      }

      .cls-8 {
        fill: #f34834;
      }

      .cls-9 {
        stroke: #bbb;
      }

      .cls-10 {
        fill: #bbb;
      }
    </style>
  </defs>
  <path class="cls-1" d="M12,0A12,12,0,1,0,24,12,12.013,12.013,0,0,0,12,0Zm0,22.426A10.426,10.426,0,1,1,22.426,12,10.438,10.438,0,0,1,12,22.426Z"/>
  <path class="cls-2" d="M16.2,13.466V11.047a4.25,4.25,0,0,0-3.2-4.1,1,1,0,0,0-1-.94,0.966,0.966,0,0,0-1,.913,4.271,4.271,0,0,0-3.188,4.128v2.342c0,1.144-.752,1.341-1.643,2.273H17.834C16.942,14.73,16.2,14.611,16.2,13.466ZM12,17.994a2.266,2.266,0,0,0,2.113-1.865H9.887A2.266,2.266,0,0,0,12,17.994Z"/>
  <path id="ICON" class="cls-3" d="M38,0A12,12,0,1,0,50,12,12.014,12.014,0,0,0,38,0Zm0,22.426A10.426,10.426,0,1,1,48.426,12,10.438,10.438,0,0,1,38,22.426ZM37.778,7.558a1.049,1.049,0,1,0-1.049-1.049A1.05,1.05,0,0,0,37.778,7.558Zm1.668,9.217H38.787v-7.5A0.787,0.787,0,0,0,38,8.487H36.555a0.787,0.787,0,0,0,0,1.574h0.659v6.714H36.555a0.787,0.787,0,0,0,0,1.574h2.891A0.787,0.787,0,1,0,39.445,16.775Z"/>
  <path id="ICON-2" data-name="ICON" class="cls-4" d="M64.666,0.4a0.771,0.771,0,0,0-1.336,0L52.106,19.83a0.754,0.754,0,0,0,0,.771,0.771,0.771,0,0,0,.668.385h22.45a0.773,0.773,0,0,0,.77-0.771,0.829,0.829,0,0,0-.128-0.437ZM54.109,19.445L64,2.326l9.889,17.119H54.109ZM63.215,7.629v5.908a0.771,0.771,0,0,0,1.541,0V7.629A0.771,0.771,0,0,0,63.215,7.629Zm0.771,7.706a0.773,0.773,0,0,0-.771.77v0.514a0.771,0.771,0,1,0,1.541,0V16.105A0.773,0.773,0,0,0,63.986,15.335Z"/>
  <path id="ICON-3" data-name="ICON" class="cls-5" d="M91,0a12,12,0,1,0,12,12A12.013,12.013,0,0,0,91,0Zm0,22.426A10.426,10.426,0,1,1,101.426,12,10.438,10.438,0,0,1,91,22.426ZM95.344,8.071l-6.188,6.188-2.5-2.5a0.787,0.787,0,0,0-1.113,1.113L88.6,15.929a0.787,0.787,0,0,0,1.113,0l0,0,6.742-6.742A0.787,0.787,0,1,0,95.344,8.071Z"/>
  <rect id="Rounded_Rectangle_2" data-name="Rounded Rectangle 2" class="cls-6" y="29" width="15" height="15" rx="2" ry="2"/>
  <circle class="cls-6" cx="55.5" cy="36.5" r="7.5"/>
  <circle id="Ellipse_1_copy" data-name="Ellipse 1 copy" class="cls-7" cx="71.5" cy="36.5" r="7.5"/>
  <circle class="cls-8" cx="71.5" cy="36.5" r="2.5"/>
  <circle id="Ellipse_1_copy_2" data-name="Ellipse 1 copy 2" class="cls-9" cx="87.5" cy="36.5" r="7.5"/>
  <circle id="Ellipse_2_copy" data-name="Ellipse 2 copy" class="cls-10" cx="87.5" cy="36.5" r="2.5"/>
  <rect id="Rounded_Rectangle_2_copy" data-name="Rounded Rectangle 2 copy" class="cls-8" x="16" y="29" width="15" height="15" rx="2" ry="2"/>
  <path id="rect" class="cls-11" d="M21.078,38.619l5.547-5.609,1.366,1.381L22.443,40Zm-0.666-3.509,3.43,3.468L22.436,40l-3.429-3.468Z"/>
  <rect id="Rounded_Rectangle_2_copy_2" data-name="Rounded Rectangle 2 copy 2" class="cls-10" x="32" y="29" width="15" height="15" rx="2" ry="2"/>
  <path id="rect_copy" data-name="rect copy" class="cls-11" d="M37.078,38.619l5.547-5.609,1.366,1.381L38.443,40Zm-0.666-3.509,3.43,3.468L38.436,40l-3.429-3.468Z"/>
</svg>
